<?xml version="1.0" encoding="utf-8"?>
<!-- Generator: Adobe Illustrator 16.2.1, SVG Export Plug-In . SVG Version: 6.00 Build 0)  -->
<!DOCTYPE svg PUBLIC "-//W3C//DTD SVG 1.1//EN" "http://www.w3.org/Graphics/SVG/1.1/DTD/svg11.dtd">
<svg version="1.1" id="Layer_1" xmlns="http://www.w3.org/2000/svg" xmlns:xlink="http://www.w3.org/1999/xlink" x="0px" y="0px"
	 width="29px" height="29px" viewBox="0 0 29 29" style="enable-background:new 0 0 29 29;" xml:space="preserve">
<path style="fill:#6E2585;" d="M11.147,5.807c0-2.268,1.038-4.282,2.641-5.651H6.285c-0.51,0-0.923,0.413-0.923,0.923v27.239
	c0,0.509,0.293,0.629,0.653,0.269l5.499-5.498c0.359-0.36,0.946-0.36,1.305,0l5.499,5.498c0.358,0.36,0.651,0.24,0.651-0.269v-15.07
	c-0.117,0.004-0.228,0.035-0.346,0.035C14.499,13.282,11.147,9.928,11.147,5.807"/>
<path style="fill:#00B2A9;" d="M18.622,11.437c3.104,0,5.63-2.525,5.63-5.63c0-3.103-2.525-5.627-5.63-5.627s-5.63,2.524-5.63,5.627
	C12.992,8.912,15.518,11.437,18.622,11.437"/>
<path style="fill:#FFFFFF;" d="M15.397,7.193c0.159,0.209,0.552,0.794,0.961,2.094c0,0,0.082,0.441,0.442,0.441
	c0.355,0,0.512-0.327,0.512-0.327c0.533-0.992,1.79-2.857,2.67-3.984c0.889-1.127,1.935-1.994,2.35-2.414
	c0.362-0.369-0.099-1.006-0.976-0.471c0,0-1.298,0.85-2.23,1.791c-0.771,0.786-1.437,1.597-1.975,2.422
	c-0.36-0.755-0.702-1.096-1.086-1.096c-0.399,0-0.807,0.224-1.244,0.684l-0.327,0.347l0.446,0.155
	C15.108,6.896,15.259,7.011,15.397,7.193"/>
</svg>
