<?xml version="1.0" encoding="utf-8"?>
<!-- Generator: Adobe Illustrator 16.2.1, SVG Export Plug-In . SVG Version: 6.00 Build 0)  -->
<!DOCTYPE svg PUBLIC "-//W3C//DTD SVG 1.1//EN" "http://www.w3.org/Graphics/SVG/1.1/DTD/svg11.dtd">
<svg version="1.1" id="Layer_1" xmlns="http://www.w3.org/2000/svg" xmlns:xlink="http://www.w3.org/1999/xlink" x="0px" y="0px"
	 width="29px" height="29px" viewBox="0 0 29 29" style="enable-background:new 0 0 29 29;" xml:space="preserve">
<g>
	<path style="fill:#DE3831;" d="M11.856,25.32c1.025,0,1.9-0.619,2.294-1.498h6.661c0.397,0.879,1.271,1.498,2.295,1.498
		c1.395,0,2.524-1.131,2.524-2.523c0-1.395-1.13-2.525-2.524-2.525c-1.024,0-1.899,0.617-2.295,1.498h-6.661
		c-0.387-0.863-1.24-1.465-2.245-1.484l-0.49-1.221h12.905c0.867,0,1.717-0.629,1.974-1.461l2.747-8.979
		c0.164-0.542-0.141-1.116-0.682-1.282c-0.545-0.166-1.112,0.141-1.28,0.681l-2.759,8.988h-13.73L6.511,6.868
		C6.236,6.188,5.525,5.545,4.815,5.34L1.393,4.363C0.855,4.201,0.282,4.521,0.125,5.068c-0.153,0.543,0.16,1.113,0.706,1.266
		l3.418,0.978C4.357,7.344,4.567,7.533,4.61,7.635l5.41,13.449c0,0.002,0.002,0.004,0.002,0.004
		c-0.419,0.451-0.688,1.045-0.688,1.709C9.334,24.189,10.464,25.32,11.856,25.32 M23.106,22.324c0.261,0,0.473,0.211,0.473,0.473
		c0,0.26-0.212,0.473-0.473,0.473c-0.259,0-0.472-0.213-0.472-0.473C22.635,22.535,22.848,22.324,23.106,22.324 M12.328,22.797
		c0,0.26-0.211,0.473-0.472,0.473s-0.472-0.213-0.472-0.473c0-0.262,0.211-0.473,0.472-0.473S12.328,22.535,12.328,22.797"/>
	<path style="fill:#DE3831;" d="M10.37,10.64c0,0.565,0.46,1.026,1.026,1.026h12.087c0.565,0,1.025-0.46,1.025-1.026
		c0-0.566-0.46-1.026-1.025-1.026H11.396C10.83,9.614,10.37,10.073,10.37,10.64"/>
	<path style="fill:#DE3831;" d="M22.463,13.181H12.418c-0.567,0-1.025,0.461-1.025,1.025c0,0.568,0.458,1.024,1.025,1.024h10.045
		c0.563,0,1.024-0.457,1.024-1.024C23.487,13.642,23.026,13.181,22.463,13.181"/>
</g>
</svg>
