<?xml version="1.0" encoding="utf-8"?>
<!-- Generator: Adobe Illustrator 16.2.1, SVG Export Plug-In . SVG Version: 6.00 Build 0)  -->
<!DOCTYPE svg PUBLIC "-//W3C//DTD SVG 1.1//EN" "http://www.w3.org/Graphics/SVG/1.1/DTD/svg11.dtd">
<svg version="1.1" id="Layer_1" xmlns="http://www.w3.org/2000/svg" xmlns:xlink="http://www.w3.org/1999/xlink" x="0px" y="0px"
	 width="29px" height="29px" viewBox="0 0 29 29" style="enable-background:new 0 0 29 29;" xml:space="preserve">
<path style="fill:#6C6F70;" d="M22.85,0H6.151C2.761,0,0,2.759,0,6.151v16.697C0,26.242,2.761,29,6.151,29H22.85
	c3.392,0,6.15-2.758,6.15-6.151V6.151C29,2.759,26.241,0,22.85,0z M26.54,22.849c0,0.393-0.069,0.766-0.186,1.117
	c-0.434-0.545-1.07-0.947-1.692-1.241c-1.067-0.501-4.867-2.03-5.255-2.139c-0.462-0.317-0.915-1.379-1.165-1.902
	c-0.247-0.035-0.49-0.073-0.734-0.107c-0.216-1.055,1.004-1.005,1.067-3.37c0.008-0.289,0.645-0.13,0.859-0.433
	c0.198-0.273,0.444-0.833,0.503-1.168c0.111-0.614,0.135-1.421,0.059-2.09C19.938,11,19.451,11.174,19.5,10.75
	c0.099-0.86,0.583-4.771-0.965-5.624c-0.202-0.112-0.813-0.151-0.813-0.151L17.188,4.48c-2.156-1.327-4.465-0.396-5.702,0.106
	c-1.782,0.578-3.53,2.53-2.281,6.056c0.218,0.614-0.56,0.691-0.5,1.271c0.077,0.758,0.078,2.585,0.8,3.037
	c0.062,0.044,0.579,0.171,0.573,0.137c0.463,2.663,1.547,2.163,1.285,3.464l-0.55,0.133c-0.244,0.523-0.699,1.585-1.162,1.902
	c-0.39,0.108-4.33,1.632-5.322,2.158c-0.619,0.326-1.241,0.771-1.634,1.363c-0.148-0.393-0.235-0.813-0.235-1.259V6.151
	c0-2.035,1.655-3.691,3.69-3.691H22.85c2.032,0,3.69,1.656,3.69,3.691V22.849z"/>
</svg>
